<?xml version="1.0"?>
<svg xmlns="http://www.w3.org/2000/svg" viewBox="0 0 50 50" fill="none" stroke="currentColor">
    <path  d="M 24.984375 2 L 18.625 8.3261719 C 18.228 8.7231719 18.228 9.368625 18.625 9.765625 C 19.022 10.162625 19.6655 10.162625 20.0625 9.765625 L 24 5.84375 L 24 15 L 3 15 L 3 19 L 47 19 L 47 15 L 26 15 L 26 5.84375 L 29.9375 9.765625 C 30.3345 10.162625 30.979953 10.162625 31.376953 9.765625 C 31.773953 9.368625 31.772 8.7231719 31.375 8.3261719 L 25.015625 2 L 25 2.015625 L 24.984375 2 z M 3 23 L 3 27 L 47 27 L 47 23 L 3 23 z M 3 31 L 3 35 L 23.992188 35 C 23.996501 35.004996 24 35.010891 24 35.015625 L 24 44.171875 L 20.0625 40.248047 C 19.6655 39.851047 19.022 39.851047 18.625 40.248047 C 18.228 40.645047 18.228 41.2905 18.625 41.6875 L 24.984375 48.013672 L 25 47.998047 L 25.015625 48.013672 L 31.375 41.6875 C 31.772 41.2905 31.773953 40.647 31.376953 40.25 C 30.979953 39.853 30.3345 39.853 29.9375 40.25 L 26 44.171875 L 26 35.015625 C 26 35.010891 26.003616 35.004996 26.007812 35 L 47 35 L 47 31 L 3 31 z"/>
</svg>
